<svg xmlns="http://www.w3.org/2000/svg" viewBox="0 0 159.55 84.59"><defs><style>.cls-1{fill:#bc0008;}</style></defs><g id="レイヤー_2" data-name="レイヤー 2"><g id="レイヤー_1-2" data-name="レイヤー 1"><path class="cls-1" d="M20.35,20.34H32.12V40.57a8.54,8.54,0,0,1,9.64,0V10.71h-31V29.22a16.56,16.56,0,0,1,9.64-3.5Zm-9.64,51.4h9.64v-11l10.7,5.36V56.55l-6-3,6-3V40.69H20.35V30H10.71V40.69H0v9.64H12.44L0,56.55v9.51L10.71,60.7Zm7,9.64H13.92V72.81H10.71V84.59h9.63v0a7,7,0,0,1-2.67-3.18m6.42-8.57A5.89,5.89,0,1,0,30,78.7a5.9,5.9,0,0,0-5.89-5.89m0,8.57a2.68,2.68,0,1,1,2.68-2.68,2.68,2.68,0,0,1-2.68,2.68M38.55,78.7a2.68,2.68,0,0,1-5.36,0V72.81H30V75a6.93,6.93,0,0,1,1.07,3.7,7,7,0,0,1-.48,2.56A5.89,5.89,0,0,0,41.76,78.7V72.81H38.55ZM0,78.7a5.89,5.89,0,0,0,5.89,5.89H9.64V81.38H5.89a2.68,2.68,0,1,1,0-5.36H9.64V72.81H5.89A5.9,5.9,0,0,0,0,78.7m127.42-68h-9.63v9.63h9.63Zm.54,15a16.49,16.49,0,0,1,10.17,3.5V21.42H116.71V10.71h-9.63V39.47a13.9,13.9,0,0,1,4.31,1.84A16.62,16.62,0,0,1,128,25.7m-75.49,46V54.05l10.71-3.57V40.9L32.12,51.25v9.58l10.71-3.57V71.74Zm85.66-61h-9.64v9.63h9.64Zm-64.25,0h-31v9.63H73.88Zm-7.27,26a11,11,0,0,1,7.27.82V21.42h-31v8.73a13.9,13.9,0,0,1,23.78,6.54M64.25,50.33H95.3V40.69h-31ZM79.44,71.74,84.8,61H95.3V51.4h-31V61h11L69.93,71.74ZM66.92,79.81l-5.09-7H58.36V84.59h3.21v-7l5.09,7h2.55l.93-2.76v-9H66.92Zm-18.2-7H42.83V84.59h5.89a5.89,5.89,0,0,0,0-11.78m0,8.57H46V76h2.68a2.68,2.68,0,0,1,0,5.36M138.13,30h-9.64V40.69h-10.7V61h9.63V50.33H139.2V71.74h9.64v-31H138.13ZM136,79.81l-5.09-7h-3.48V84.59h3.22v-7l5.09,7h3.47V82.41a6.95,6.95,0,0,1,0-7.41V72.81H136Zm3.21-40.19h9.64V30H139.2Zm10.71,0h9.64V30h-9.64Zm-26.77,45h3.21V72.81h-3.21Zm26.77,0h3.21V81.38h-3.21ZM139.2,78.7a5.89,5.89,0,0,0,5.89,5.89h3.75V81.38h-3.75a2.68,2.68,0,0,1,0-5.36h3.75V72.81h-3.75a5.9,5.9,0,0,0-5.89,5.89M80.31,76h4.28v8.57H87.8V76h4.29V72.81H80.31Zm28.91-.44v9h9.64V81.27H113l-.54,0V80.15h6.43V77.26H113l-.54-.06V76.13h6.43V72.81h-8.72ZM74.27,72.81,70.34,84.59H73.5l.44-1.34h4.17l.44,1.34h3.16L77.78,72.81Zm.64,7.55L76,77l1.11,3.35Zm18.25,4.23h3.21V72.81H93.16Zm10.17-4.19-2.53-7.59H97.65l3.92,11.78h3.52L109,72.81h-3.15Zm-1.61-8.66h9.64V62.49l5.35-1.34v-9.6L96.37,56.63v9.61l5.35-1.34Zm2.15-32.66a13.73,13.73,0,0,1,2.14.19V10.71H95.3V0H85.66V10.71H75V29.25a13.79,13.79,0,0,1,9.64,0V20.34H96.37v21a13.77,13.77,0,0,1,7.5-2.23"/></g></g></svg>